<svg xmlns="http://www.w3.org/2000/svg" xmlns:xlink="http://www.w3.org/1999/xlink" width="841.89" height="595.276" viewBox="0 0 841.89 595.276">
  <defs>
    <clipPath id="clip-アートボード_1">
      <rect width="841.89" height="595.276"/>
    </clipPath>
  </defs>
  <g id="アートボード_1" data-name="アートボード 1" clip-path="url(#clip-アートボード_1)">
    <rect width="841.89" height="595.276" fill="#fff"/>
    <g id="レイヤー_1" data-name="レイヤー 1">
      <g id="グループ_3" data-name="グループ 3">
        <g id="グループ_1" data-name="グループ 1">
          <path id="パス_1" data-name="パス 1" d="M277.789,291.293l.382-.026q0-.741.005-1.481l-.387-.733Z" fill="#dc000c"/>
          <path id="パス_2" data-name="パス 2" d="M326.413,340.8c.106.027.212.057.317.089l-.309-.332C326.416,340.643,326.414,340.724,326.413,340.8Z" fill="#dc000c"/>
          <path id="パス_3" data-name="パス 3" d="M487.54,203.033l-.39-.2q.018.147.033.294Z" fill="#dc000c"/>
          <path id="パス_4" data-name="パス 4" d="M563.848,252.113q.027-.4.052-.8c0-.354-.007-.708-.011-1.063l-.047-.4-.048-2.214h0c-.05-3.329-.055-6.66-.175-9.988a20.625,20.625,0,0,0-.585-3.139l-.453-3.326q-.171-1.494-.343-2.987c-.443-2.023-.891-4.044-1.327-6.068-.258-1.2-.5-2.4-.743-3.594l-.178-.806-.328-1.093q-1.242-3.527-2.485-7.055l-.588-.839c.02-.112.042-.223.066-.334q-.4-.933-.805-1.865-.516-.957-1.03-1.915l-.184-.687-.361-1.124-.431-.966c-3.658-5.638-7.041-11.476-11.071-16.843-2.631-3.5-6.2-6.321-9.353-9.446l-3.022-2.241-.458-.4a.255.255,0,0,1-.283-.174l-9.445-5.211.612,1.885q-.306-.942-.612-1.884l-5.742-2.4a.313.313,0,0,0-.3-.078l-1.8-.967-.935-.1-2.664-.816-.421-.293a.648.648,0,0,1-.326-.115l-10.234-1.8-7.216-.651-3.793-.388-1.121-.057-1.534-.319-1.9.014-8.326-.814-3.432-.7-.673-.087a2.319,2.319,0,0,1-.617,1.017,2.328,2.328,0,0,0,.617-1.017l-3.1-.331-1.522-.325-1.531.021-3.793-.747-2.6-.626-1.93-.195-3.059-.674-4.141-.822-2.294-.691-.924-.094-1.346-.25-.4-.008-.761-.146-.517-.126,0,0a3.893,3.893,0,0,0-.911-.539c-2.306-.614-4.624-1.191-6.938-1.779l-2.251-.4-1.107-.074-3.821-1.168c-6.157-1.884-12.327-3.727-18.464-5.67-2.605-.825-5.141-1.861-7.709-2.8-.059.188-.121.368-.19.53.069-.162.131-.342.19-.53a.757.757,0,0,0-.327-.079q-.91-.43-1.824-.861l-.022.049-.479-.273a.211.211,0,0,0-.254-.071l-4.63-2.249.005.028-.424-.29a.176.176,0,0,0-.222-.086l-.539-.3-.349-.162q-1.115-.543-2.232-1.085l-.005.026-1.471-.813-.019.055-.471-.329-3.79-1.867-.136-.472a.3.3,0,0,1-.261-.179l-4.856-2.46h0l-1.212-.575-.006,0-.342-.232-3.958-1.9v0l-.018-.007,0,0q-1.44-.773-2.876-1.552l-2.663-1.106-.365-.017c-3.22-.652-4.985,1.259-6.514,3.585l-1.967,2.681-1.338,2.384-1.6,5.494-.468,5.6c.862,6.555,2.123,12.972,6.505,18.315h0l3.309,3.666h0q1.973,1.353,3.943,2.71l4.977,2.5,1.14.63a.645.645,0,0,0,.229.208l.1.069.3.271,5.407,1.834,1.87.856,3.829,1.358.351.1-.018-.02.4.3.4-.008,1.847.538,1.015.326.919.325a.36.36,0,0,0,.324.117l1.934.676,4.189,1.048.681.128c0-.464,0-.926,0-1.389,0,.463,0,.925,0,1.389l.012-.037.824.3,2.983.77,2.328.665,1.538.425,3.775.375c5.677.256,11.382.251,17.021.855a88.4,88.4,0,0,1,11.987,2.6c2.136.537,4.187,1.4,6.277,2.124l1.936.632,5.283,2.319.366.124.537.268q6.244,2.744,12.482,5.5c.132.059.179.305.265.464l.181.022.178-.037,3.034,1.168.4.073h0l.739.321h0l1.482.387.367.188.4.2h0v0l.388.294,1.436.092.428.169.815.083.355.032,1.431.287h0l3.131,1.191.763.061,3.788,1.043.4.427,1.109.063.39.2.762-.02h0l3.055,1.282,1.1.077a1.776,1.776,0,0,1,.232-.492,1.776,1.776,0,0,0-.232.492l1.56.67a1.346,1.346,0,0,1,.356.059l2.228.09,2.695.609,2.265.822,2.319.589,1.871.4.395-.02,9.818,2.387,2.287.364c2.065.526,4.173.928,6.182,1.612a7.09,7.09,0,0,1,4.754,4.318l.174,1.824c.635,3.88-2.061,4.9-5.035,5.685l-.6.25-2.42.124-7.967.252-1.137-.017-9.475-.357-8.726-.708-2.639-.007h0A3.112,3.112,0,0,1,491.3,223l-1.1.063.018-.123-1.542.039,0-.4-7.876-.349c-.046.285-.093.57-.139.855l7.27,2.076.362.115q7.107,1.836,14.211,3.68a2.7,2.7,0,0,1,.61.353l2.638.446.4.3,1.485.362c2.653.705,5.332,1.329,7.954,2.135,4.441,1.365,8.847,2.846,13.267,4.279l.772.329.762.369a.13.13,0,0,0,.2.049l.557.3,4.013,1.937.539.307a.136.136,0,0,0,.2.067l.56.358c1.589,1.4,3.88,2.235,4.219,4.664.212,1.515.162,3.066.229,4.6h0l-1.4,1.629a4.779,4.779,0,0,0,1.126,2.677,7.354,7.354,0,0,0,.55.6,7.354,7.354,0,0,1-.55-.6,4.779,4.779,0,0,1-1.126-2.676l-3.817,1.724-1.124-.038-.365-.007-.763.052-7.968.136c.232.3.426.666.658.964-.232-.3-.426-.664-.658-.964l-3.8-.559-1.352.035-.5-.156-2.291-.173-.767-.3-1.706-.122-.558-.185-4.5-.73h0l-1.2-.24.382.741-.382-.741a.325.325,0,0,0-.32-.116h0l-6.161-1.553L500.794,249l-.558-.207-.093.054-.088-.06-10.221-2.369-7.963-1.421-3.068.4c2.129.975,4.291,1.888,6.381,2.938,5.026,2.525,10.009,5.131,15.029,7.668,1.434.725,2.932,1.328,4.4,1.986h0l.377.07,1.138.33,7.24,4.142.714.424,3.423,1.837,10.665,6.61c3.432,2.492,6.758,5.086,9.148,8.653,1.037,1.546,1.467,3.117.571,4.861h0c-1.589,2.777-4.291,3.048-7.109,3.057h0c-5.022-.139-9.492-2.33-14.177-3.713-1.49-.439-2.931-1.038-4.394-1.564l-1.929-1.042-.371-.121-.518-.276c-2.946-1.176-5.933-2.262-8.827-3.55-4.221-1.878-8.375-3.9-12.557-5.862l-8.774-3.725a18.776,18.776,0,0,0-2.018-1.073c-1.643-.643-3.327-1.184-4.973-1.82-1.24-.479-2.447-1.042-3.668-1.568a6.448,6.448,0,0,0,1.032,1.394c2.741,2.15,5.613,4.074,9.18,4.654l7.2,5.215,0-.01,1.14.808c4.942,3.942,9.934,7.826,14.807,11.851,2.688,2.22,5.174,4.678,7.751,7.029l.639.731.327.434,2.229,2.642.864,1.471c.187.058.4.1.6.136-.205-.041-.415-.078-.6-.136q.388,1.674.779,3.349-.254,1.485-.505,2.97l-3.335,2.322-.787.046-1.847-.023L506.5,308.1l-1.61-.3h0a1.092,1.092,0,0,0-.249-.091l-.792-.07-.386-.284-.386-.086-.334-.306-.434-.119-.338-.252-1.546-.718-11.753-6.357-2.252-1.141-1.518-.887c-3.116-1.6-6.209-3.243-9.353-4.788a9.275,9.275,0,0,1-5.173-6.219l-2.55-5.642q-1.337-3.537-2.674-7.074l-.155-.341-.636-1.9q-.588-2.608-1.175-5.218l-.354-6.013c.025-2.358-.3-4.783.152-7.058a72.17,72.17,0,0,0,1.476-11.969q0-5.413,0-10.827.189-1.307.38-2.614l.393-1.882q.01-.542.021-1.084c.113-.257.227-.515.34-.773.044-.031.127-.065.125-.091a1.4,1.4,0,0,0-.077-.262h0c.837-2.611,1.654-5.229,2.517-7.832,1.258-3.792,1.251-3.827-2.62-4.967l-1.171-.07h0l-.321.009-1.164.076c-3,1.339-5.937,2.842-7.092,6.148-.748,2.144-1.126,4.413-1.67,6.626-.536,2.726-.263,5.625-1.673,8.45l-1.309-1.4-2.345-4.789-.825-1.516c.364-2.23-1.439-3.719-2.031-5.636-.744-2.412-1.878-4.708-2.844-7.054-.464-1.2-.888-2.412-1.4-3.59-2.007-4.624-3.952-9.278-6.1-13.836-1.1-2.325-2.669-3.049-4.648-2.285a3.645,3.645,0,0,0-2.162,4.146c.5,4.079,1.189,8.134,1.8,12.2q1.045,3.672,2.089,7.345.691,3.049,1.382,6.1l-2.6-4.51-.515-.733-.266-.413.032.011q-.395-.959-.79-1.916a.281.281,0,0,0-.069-.281l-.286-.772q-.555-1.672-1.111-3.346l-1.188-1.869-.407-.737q-1.314-2.617-2.626-5.234h0a28.579,28.579,0,0,0-6.117-9.691c-3.335-1.556-5.066-.6-5.4,2.983q0,.744.01,1.487a99.629,99.629,0,0,0,7.607,19.057c.324.59.562,1.226.84,1.841l1.489,2.673c.054-.139.109-.277.164-.415-.055.138-.11.276-.164.415l.426,1.073c1.46.032,2.349.224,2.853.768-.5-.544-1.393-.736-2.853-.768a10.029,10.029,0,0,1,.644,1.873,23.3,23.3,0,0,1,.088,2.686l-5.28-6.8-2.856-3.735c-2.6-3.066-5.105-6.213-7.853-9.142-.746-.794-2.22-.927-3.36-1.363l-1.321.129-1.692,2.178-.089,1.113a18.831,18.831,0,0,0,1.083,3.657c1.862,3.536,3.885,6.991,5.845,10.478l2.6,3.419c.2-.144.4-.308.6-.478-.2.17-.4.334-.6.478q.384.558.767,1.118l.395.751,0,0,.717.883a.623.623,0,0,0,.022.278l3.441,4.06c.27.278.553.545.827.82-.274-.275-.557-.542-.827-.82.038,1.366-.6,1.414-1.429.613-1.072-1.035-2.039-2.175-3.051-3.269l-5.756-5.184-5.691-3.8-4.175.8-.3.415c-.884,1.836-.166,3.243,1.018,4.733,4.738,5.963,9.374,12.005,14.048,18.017h0l2.256,3.743.352.45-.045.013h0q1.9,3.517,3.79,7.036l.489.7q.553-.092,1.107-.187-.553.095-1.107.187l6.055,7.523,1.462-1.119.028.064c-.573.358-1.035.707-1.49,1.055l4.582,4.792q.165.264.328.529c2.253,4.948,4.479,9.908,6.767,14.84,1.76,3.793,1.851,7.8,1.515,11.815a30.463,30.463,0,0,1-1.393,5.3l-.379.417a1.05,1.05,0,0,1-.082.326,14.457,14.457,0,0,1-7.228,8.58c-1.494.854-3.023.357-4.443-.425l-3.054,1.557,3.054-1.557-2.316-5.913h0a.879.879,0,0,0-.009-.339h.012l-.306-.4q-.191-.428-.383-.854c-.534-1.566-.992-3.163-1.64-4.681-.251-.589-.934-1-1.421-1.492l.026-1.359a.143.143,0,0,0-.063-.2c-.26,0-.528-.022-.794-.039.266.017.534.039.794.039q-.951-2.611-1.9-5.224-2.07-3.939-4.141-7.879l-.617.164.617-.164q-.051-.686-.1-1.371a.841.841,0,0,1-.3-.084.819.819,0,0,0,.3.083h0a.2.2,0,0,0,.024,0h0l-.264-.459-1.89-3.379-.422-.735-.385-.749h0l-.567-1.2a.412.412,0,0,0-.2-.292l-.334-.537c-3.695-6.351-7.7-12.487-12.914-17.767h0l-3.875-4.469-4.92-11.57-.325-1.132h0l.325,1.132.078-.752-.4-.381-.747-3.012-.911,1.63c.056.365.11.731.165,1.1l-4.219,1.015-1.506.825-6.454,2.161-4.152,1.558q-8.824,2.967-17.648,5.937c-1.23.416-2.441.886-3.661,1.33a4.68,4.68,0,0,1,.042.745,4.661,4.661,0,0,0-.042-.744l-9.052,2.7-6.119,2.211-5.229,1.614-9.6,3.825h0c-4.334,1.713-8.673,3.416-13,5.15-.725.29-1.4.713-2.091,1.076l-7.59,4.1-.753.393h0l-1.17.368-4.753,3.617a4.907,4.907,0,0,1,.263.527.915.915,0,0,1,.07.249.915.915,0,0,0-.07-.249,4.907,4.907,0,0,0-.263-.527q-.7.6-1.4,1.2h0l-5.232,6.015-1.851,5.961q0,.741-.005,1.481.9,2.445,1.8,4.889a12.794,12.794,0,0,0,6.618,5.748c1.505.534,2.988,1.128,4.482,1.7l1.512.07c7.188.24,14.207-1.073,21.243-2.237l1.515-.315,17.81-4.317,1.168-.339.9-.264,13.505-3.477,3.791-1.042,1.135-.04,2.46-1.04.58-.062,2.638-.418,18.856-4.84.483-.207.769-.15,3.805-1.193a2.874,2.874,0,0,0-.675-1.891,2.874,2.874,0,0,1,.675,1.891l3.815-.931h0l1.089-.113c.029-.108.063-.215.1-.321h0l.709-.114.763-.265.009.023,8.294-1.162c0,.119.007.239.007.358h0q-.192.191-.386.38l.2,0-.2,0-8.72,3.35-7.2,3.359-.776.385-.329.219L365.4,296.01l-2.4,1.272a.452.452,0,0,0-.23.228l-1.527.51-.757.379-1.9,1.126-15.563,8.987-.493.291-.576.058-.428.281a.3.3,0,0,1-.252.134l-.954.9-5.568,4.037-4.262,3.58-3.009,3h0l-.4.675-3.768,6.79c-1.185,2.352-.7,4.73-.12,7.11l1.314,3.6,1.464,1.236.46.367.309.332.02.041.485.066.916.345.436.243c.248.077.5.153.744.231h0l.514.489a19.682,19.682,0,0,0,8.776.639c3.471-.633,6.967-1.134,10.452-1.692l7.215-1.87,12.913-4.4.757-.473,1.556-.644,1.9-.663h0l4.9-1.949,1.139-.419h0l6.965-2.906.611-.164,1.089-2.278-1.089,2.278,2.732-1.183,2.961-1.018.715-.4,1.552-.672a1.633,1.633,0,0,1,.252-.93,1.633,1.633,0,0,0-.252.93l1.527-.718.765-.351L398.4,323l.75-.41.8-.674,3.327-1.159,10.3-5.231-1.366-1.481,1.366,1.481.453.075,5.187-2.26-4.145,3.274-9.084,7.82a30.869,30.869,0,0,0-6.375,5.7l-5.285,5.054h0q-2.205,1.994-4.413,3.986-1.755,1.842-3.512,3.683l-5.007,6.054-.111.484-.667.518-3.816,5.987-.675,2.216a2.18,2.18,0,0,0,.2.122c-.069-.039-.136-.079-.2-.122l-.445.379,0,7.756,1.861,1.2,1.183.642,2.617.936,2.654.339,1.137.014h.758c.819-.028,1.64-.11,2.456-.076a21.725,21.725,0,0,0,11.775-2.513c-1.363.171-2.723.356-4.088.5,1.365-.147,2.725-.332,4.087-.5l7.368-3.51,3.79-2.61,4.126-2.212.462-.294.748-.42,7.215-3.68,4.555-2.259.38-.116.437-.229c.006.011.009.021.015.032l17.114-7.145,2.157-.863.565-.255.107.022.076-.076.9-.321.129.022.107-.072.938-.318.11.035.09-.069,3.068-1.12,1.877-.726,9.2-2.979c7.357-2.38,14.733-4.706,22.064-7.16,4.061-1.359,8.048-2.929,12.068-4.4a.253.253,0,0,0,.272-.084c3.225-1.354,6.551-2.518,9.65-4.108,4.455-2.286,8.746-4.882,13.107-7.346l2.607-1.676,4.971-3.677.43-.326,2.562-2.005,12.547-12.6,1.773-2.091c3.343-5.63,6.7-11.25,10.007-16.9a10.135,10.135,0,0,0,.693-2.258.918.918,0,0,0,.07-.339l.294-.394.11-.746q.809-2.035,1.618-4.07.342-1.273.682-2.546.132-.618.266-1.237.221-.928.44-1.855.156-.753.311-1.505a.935.935,0,0,0,.068-.358c.107-.25.213-.5.319-.749l.008-.761q.461-1.906.92-3.811l.081-1.356.194-.056-.1-.762.025-.375ZM423.18,219.089c.213-.532.425-1.066.624-1.6C423.605,218.023,423.393,218.557,423.18,219.089ZM405.757,359.341a2.276,2.276,0,0,0,.244.12,2.267,2.267,0,0,1-.244-.119Zm-42.15-111.49h0c.046-.1.149-.231.119-.306C363.755,247.621,363.652,247.747,363.607,247.851Zm-34.1,93.056a2.82,2.82,0,0,1,.735-1.007A2.82,2.82,0,0,0,329.509,340.907Zm.741-1.013q.16-.147.34-.291Q330.41,339.747,330.25,339.894Zm95.044-76.2.042-.033c-.031-.539-.062-1.079-.091-1.585a5.038,5.038,0,0,0,.263,1.57l.009.011-.037.006.011-.006C425.457,263.671,425.379,263.685,425.294,263.7Zm136.379-13.563c.027-.01.055-.024.084-.038a.755.755,0,0,1-.084.038Zm.447.194a2.034,2.034,0,0,0-.086-.254,2.271,2.271,0,0,1,.087.254Zm-22.737,35.321a1.165,1.165,0,0,0-.246-.245,1.165,1.165,0,0,1,.246.245.888.888,0,0,1,.143.309A.888.888,0,0,0,539.383,285.651ZM468.569,159.393a2.459,2.459,0,0,0,.556-.367,2.459,2.459,0,0,1-.556.367,4.162,4.162,0,0,1-.755.266A4.162,4.162,0,0,0,468.569,159.393ZM373.606,129.6a4.971,4.971,0,0,0,.548.671,4.971,4.971,0,0,1-.548-.671,4.552,4.552,0,0,1-.817-2.386A4.544,4.544,0,0,0,373.606,129.6ZM363.48,159.137a1.254,1.254,0,0,0,.027-.225A1.254,1.254,0,0,1,363.48,159.137Zm106.608,38.675h0l.377.1Zm9,1.2a1.1,1.1,0,0,1,.28-.15A1.1,1.1,0,0,0,479.09,199.012Zm13.88,4.585a1.062,1.062,0,0,1,.14-.076A1.062,1.062,0,0,0,492.97,203.6Zm46.044,81.727c-.027-.017-.051-.035-.08-.051C538.963,285.289,538.987,285.307,539.014,285.324Z" fill="#dc000c"/>
          <path id="パス_5" data-name="パス 5" d="M425.491,263.662c.016,0,.024-.009.017-.011Z" fill="#dc000c"/>
          <path id="パス_6" data-name="パス 6" d="M383.246,228.071c-.54-2.24-1.247-4.441-1.882-6.659l-6.515-5.517-1.871-1.1-1.219-1.125-3.739-1.064-.348-.14-.527-.28-.979-.424c-2.563-.838-5.129-1.664-7.686-2.519-1.76-.588-3.507-1.217-5.26-1.827l-1.11-.22-.76-.266.01.007c-2.01-.383-4.048-1.192-6.022-1.061-4.341.287-8.65,1.049-12.971,1.617l-1.47.194c-2.82.7-5.668,1.3-8.456,2.107-5.342,1.546-10.65,3.209-15.973,4.821-.3.09-.6.159-.907.238l0-.037-.456.285-1.9.778c-2.882,1.739-5.884,3.313-8.616,5.255a10.28,10.28,0,0,0-4.272,11.913,10.845,10.845,0,0,0,7.194,6.215,51.558,51.558,0,0,1,4.939,1.977c.61.069,1.219.145,1.83.207q4.207.423,8.416.84l1.107-.033,1.914.165,22.762-.366,3.775-.052,1.924-.29.359-.011c.753-.022,1.51,0,2.257-.074,3.183-.332,6.362-.694,9.542-1.045l.362-.126.725-.02.8.143-.036-.123.467-.29,1.087-.121.707-.006,1.165.173,4.942-.5.4-.3,1.109-.069,1.134-.219,6.036-.564,1.2-.19h0l2.962-.339.8-.188,2.339-.258.945.055.912-1.631q.011-.915.02-1.831C384.032,232.138,383.731,230.083,383.246,228.071Z" fill="#dc000c"/>
          <path id="パス_7" data-name="パス 7" d="M481.871,244.993a17.272,17.272,0,0,0-7.963-1.448l4.9,1.852Z" fill="#dc000c"/>
          <path id="パス_8" data-name="パス 8" d="M476.35,199.793l.182-.027-.355-.032Z" fill="#dc000c"/>
          <path id="パス_9" data-name="パス 9" d="M498.921,221.848l.188,0,.188,0Z" fill="#dc000c"/>
        </g>
        <g id="グループ_2" data-name="グループ 2">
          <path id="パス_10" data-name="パス 10" d="M137.4,417.54q-.506,1.227-1.012,2.758t-.927,2.758a.721.721,0,0,1-.759.437q-1.1-.086-1.94-.131l-1.728-.088q-.887-.042-2.066-.087t-2.951-.043h-5.059q-2.277,0-3.12.086c-.563.119-.843.41-.843.876,0,.293-.014.832-.042,1.62s-.042,1.663-.042,2.627v36.724c0,.584.012,1.475.042,2.67s.07,2.451.126,3.765.112,2.539.169,3.676a16.865,16.865,0,0,0,.253,2.5q0,.525-.5.525h-7.678q-.676,0-.506-.525.083-.789.21-2.5t.211-3.676q.084-1.971.127-3.765t.042-2.67V428.439q0-1.443-.042-2.626c-.029-.788-.042-1.357-.042-1.707a.979.979,0,0,0-.843-.876q-.845-.086-3.036-.086h-4.975q-3.625,0-5.818.086t-4.384.263a.871.871,0,0,1-.591-.219.539.539,0,0,1-.084-.656q.421-1.224.886-2.451t.885-2.627a.666.666,0,0,1,.759-.612q1.6,0,2.824.044t2.319.043q1.1,0,2.277.044t2.614.044q2.951.087,5.392.087h13.327q2.023,0,3.963-.044t3.457-.043q1.6,0,2.571-.044t1.813-.044q.842,0,1.813-.043t2.488-.044C137.431,416.928,137.571,417.133,137.4,417.54Z" fill="#1a1311" stroke="#1a1311" stroke-miterlimit="10" stroke-width="0.5"/>
          <path id="パス_11" data-name="パス 11" d="M175.936,462.977a16.7,16.7,0,0,1-1.307,6.7,15.041,15.041,0,0,1-3.71,5.208,17.181,17.181,0,0,1-5.776,3.415,22.14,22.14,0,0,1-7.589,1.225,26.322,26.322,0,0,1-4.005-.35,21.23,21.23,0,0,1-3.92-.963q-1.687-.611-3.373-1.138t-3.12-.964q-.591-.174-.338-.787l2.193-6.216q.252-.875.759-.174a16.688,16.688,0,0,0,5.143,3.2,16.422,16.422,0,0,0,6.155,1.182,12.268,12.268,0,0,0,4.343-.744,10.425,10.425,0,0,0,3.415-2.058,9.863,9.863,0,0,0,2.277-3.108,9.06,9.06,0,0,0,.842-3.9,11.882,11.882,0,0,0-1.812-6.522,19.732,19.732,0,0,0-6.282-5.646q-1.941-1.226-4.3-2.758t-4.385-2.846a20.709,20.709,0,0,1-7.251-6.959,16.45,16.45,0,0,1-2.193-8.361,14.225,14.225,0,0,1,1.307-6.172,13.374,13.374,0,0,1,3.584-4.639,16.861,16.861,0,0,1,5.354-2.933,20.1,20.1,0,0,1,6.535-1.051,23.3,23.3,0,0,1,8.6,1.663q1.179.439,2.571.963t2.825.964a.6.6,0,0,1,.337.875l-2.023,5.953q-.254.876-.759.175a20.214,20.214,0,0,0-4.975-3.2,15.1,15.1,0,0,0-6.324-1.27,9.722,9.722,0,0,0-6.914,2.364,7.511,7.511,0,0,0-2.53,5.691q0,5.34,5.144,8.667,1.095.788,2.529,1.707t2.909,1.838q1.475.92,2.909,1.839t2.53,1.619a26.347,26.347,0,0,1,7.968,7.7A17.97,17.97,0,0,1,175.936,462.977Z" fill="#1a1311" stroke="#1a1311" stroke-miterlimit="10" stroke-width="0.5"/>
          <path id="パス_12" data-name="パス 12" d="M233.526,417.453a19.856,19.856,0,0,0-.254,2.626q-.086,1.752-.168,3.721t-.127,3.721q-.044,1.75-.042,2.539v26.613a25.561,25.561,0,0,1-1.684,9.5,19.922,19.922,0,0,1-4.754,7.179,21.436,21.436,0,0,1-7.407,4.551,27.38,27.38,0,0,1-9.638,1.62,27.713,27.713,0,0,1-9.679-1.62,21.806,21.806,0,0,1-7.492-4.551,19.665,19.665,0,0,1-4.8-7.179,25.581,25.581,0,0,1-1.682-9.5V430.06q0-.789-.043-2.539t-.126-3.721q-.086-1.971-.21-3.721t-.211-2.626q0-.525.505-.525h7.673a.624.624,0,0,1,.38.175c.14.118.182.234.127.35a19.856,19.856,0,0,0-.254,2.626q-.084,1.752-.168,3.721t-.127,3.721q-.042,1.75-.042,2.539l.084,24.95q0,8.665,4.143,13.525t11.92,4.859q7.779,0,11.837-4.859t4.057-13.525l.085-24.95q0-.789-.043-2.539t-.126-3.721q-.085-1.971-.211-3.721t-.211-2.626q0-.525.506-.525h7.673A.456.456,0,0,1,233.526,417.453Z" fill="#1a1311" stroke="#1a1311" stroke-miterlimit="10" stroke-width="0.5"/>
          <path id="パス_13" data-name="パス 13" d="M294.655,417.453a20.066,20.066,0,0,0-.253,2.626q-.084,1.752-.168,3.721t-.126,3.721q-.045,1.75-.043,2.539v35.017q0,1.49.043,3.152t.126,3.327q.082,1.664.168,3.151a25.138,25.138,0,0,0,.253,2.539.812.812,0,0,1-.505,1.051l-1.434.525a.984.984,0,0,1-.674.087,2.351,2.351,0,0,1-.759-.7l-38.028-43.86q-.506-.612-.506.088v30.64q0,.876.042,2.67t.127,3.765q.083,1.97.168,3.676a17.146,17.146,0,0,0,.253,2.5c.056.118.013.234-.126.35a.627.627,0,0,1-.38.175h-6.914a.618.618,0,0,1-.379-.175c-.141-.116-.183-.232-.127-.35.055-.526.127-1.357.211-2.5s.154-2.363.211-3.676.1-2.568.126-3.765.043-2.086.043-2.67V430.06q0-1.314-.043-3.065t-.084-3.458q-.043-1.707-.169-3.195t-.21-2.363a1.441,1.441,0,0,1,0-.7.8.8,0,0,1,.506-.437l1.433-.526c.28-.116.59.031.927.438q1.013,1.314,3.036,3.765t4.131,4.9l31.283,36.156q.506.526.505-.175V430.06q0-.789-.042-2.539t-.126-3.721q-.086-1.971-.211-3.721t-.21-2.626c0-.35.168-.525.506-.525h6.914a.627.627,0,0,1,.379.175C294.669,417.221,294.711,417.337,294.655,417.453Z" fill="#1a1311" stroke="#1a1311" stroke-miterlimit="10" stroke-width="0.5"/>
          <path id="パス_14" data-name="パス 14" d="M354.016,476.546a.916.916,0,0,1,.084.393.488.488,0,0,1-.253.4l-7.42,2.8c-.225.057-.421-.087-.59-.438q-.423-1.4-.843-2.845t-.97-3.152q-.549-1.706-1.265-3.851t-1.813-5.035l-2.192-5.953c-.113-.407-.337-.612-.674-.612q-2.448-.174-4.975-.176H322.986q-2.613,0-5.059.176a.869.869,0,0,0-.843.612l-2.276,5.428q-1.182,2.715-1.982,4.684t-1.391,3.5q-.591,1.533-1.012,2.757a21.679,21.679,0,0,0-.674,2.364.667.667,0,0,1-.759.613h-7.168q-.675,0-.336-.525a130.236,130.236,0,0,0,6.07-12.87L327.2,418.328a5.053,5.053,0,0,1,.633-1.182,1.883,1.883,0,0,1,.632-.394,2.46,2.46,0,0,1,.759-.306,7,7,0,0,0,.927-.306q.843-.263.928.35.759,2.277,1.644,4.727t1.9,5.166L348.957,464.2q.588,1.575,1.265,3.282t1.391,3.371q.715,1.665,1.307,3.152T354.016,476.546Zm-17.791-25.038-7.252-20.4q-.252-.611-.506,0L320.035,451.6c-.113.175-.126.3-.042.393a.4.4,0,0,0,.295.131q1.6.09,3.879.132t3.963.044q1.854,0,4.132-.044t3.71-.132C336.309,452.12,336.393,451.917,336.225,451.508Z" fill="#1a1311" stroke="#1a1311" stroke-miterlimit="10" stroke-width="0.5"/>
          <path id="パス_15" data-name="パス 15" d="M409.834,474.8a.941.941,0,0,1-.337.788,39.674,39.674,0,0,1-8.066,2.757,47.948,47.948,0,0,1-11.529,1.269,32.3,32.3,0,0,1-12.415-2.363,30.455,30.455,0,0,1-10.009-6.609,30.874,30.874,0,0,1-6.714-10.112,35.294,35.294,0,0,1,0-25.826,30.892,30.892,0,0,1,6.7-10.111,30.371,30.371,0,0,1,9.992-6.609,32.171,32.171,0,0,1,12.4-2.365,39.587,39.587,0,0,1,5.944.482,35.624,35.624,0,0,1,5.354,1.181q2.046.7,3.8,1.226t3.453.964a.493.493,0,0,1,.341.7l-2.28,6.391q-.257.7-.762.262a21.029,21.029,0,0,0-6.759-3.676,27,27,0,0,0-8.87-1.4,21.493,21.493,0,0,0-9.211,2.014,24.61,24.61,0,0,0-7.561,5.472,25.326,25.326,0,0,0-5.11,8.185,27.485,27.485,0,0,0-1.86,10.155,26.731,26.731,0,0,0,7.041,18.3,24.16,24.16,0,0,0,7.547,5.516,21.2,21.2,0,0,0,9.106,2.013,32.986,32.986,0,0,0,5.65-.482,19.822,19.822,0,0,0,4.89-1.444,1.351,1.351,0,0,0,.927-1.226c0-.407.014-1.007.043-1.8s.055-1.6.084-2.451.042-1.691.042-2.538v-2.145q0-1.75-.084-4.247t-.253-4.333c0-.407-.226-.641-.675-.7h-3.2q-.928,0-2.74.044t-3.668.087q-1.855.045-3.415.132t-2.066.087c-.45,0-.619-.2-.5-.612q.42-.963.927-2.5t.928-2.932a.715.715,0,0,1,.758-.526q1.518.089,4.343.175t5.523.088h6.094q1.875,0,3.453-.044a18.135,18.135,0,0,0,2.089-.131c.506,0,.729.263.674.787q-.17,1.491-.253,3.328t-.168,3.764q-.086,1.926-.127,3.677t-.042,2.977q0,1.313.042,3.151t.127,3.808q.082,1.969.168,3.9T409.834,474.8Z" fill="#1a1311" stroke="#1a1311" stroke-miterlimit="10" stroke-width="0.5"/>
          <path id="パス_16" data-name="パス 16" d="M469.868,417.453a20.2,20.2,0,0,0-.254,2.626q-.084,1.752-.168,3.721t-.127,3.721c-.029,1.167-.041,2.013-.041,2.539v26.613a25.6,25.6,0,0,1-1.683,9.5,19.939,19.939,0,0,1-4.756,7.179,21.436,21.436,0,0,1-7.407,4.551,27.371,27.371,0,0,1-9.637,1.62,27.719,27.719,0,0,1-9.68-1.62,21.8,21.8,0,0,1-7.491-4.551,19.652,19.652,0,0,1-4.8-7.179,25.561,25.561,0,0,1-1.682-9.5V430.06q0-.789-.043-2.539t-.126-3.721q-.086-1.971-.211-3.721t-.211-2.626q0-.525.506-.525h7.673a.622.622,0,0,1,.379.175c.141.118.183.234.127.35a20.065,20.065,0,0,0-.253,2.626q-.085,1.752-.168,3.721t-.127,3.721q-.043,1.75-.042,2.539l.084,24.95q0,8.665,4.143,13.525t11.92,4.859q7.779,0,11.837-4.859t4.057-13.525l.084-24.95q0-.789-.041-2.539t-.127-3.721q-.086-1.971-.211-3.721t-.211-2.626a.456.456,0,0,1,.506-.525h7.673C469.7,416.928,469.868,417.1,469.868,417.453Z" fill="#1a1311" stroke="#1a1311" stroke-miterlimit="10" stroke-width="0.5"/>
          <path id="パス_17" data-name="パス 17" d="M553.68,466.3l-2.867,7.967a3.515,3.515,0,0,1-.8,1.4,5.423,5.423,0,0,1-1.392.876,35.287,35.287,0,0,1-6.745,2.276,35.9,35.9,0,0,1-7.926.787,32.2,32.2,0,0,1-12.395-2.363,30.377,30.377,0,0,1-9.991-6.609,30.832,30.832,0,0,1-6.7-10.112,35.308,35.308,0,0,1,0-25.826,30.859,30.859,0,0,1,6.7-10.111,30.377,30.377,0,0,1,9.991-6.609,32.178,32.178,0,0,1,12.395-2.365,39.61,39.61,0,0,1,5.945.482,35.653,35.653,0,0,1,5.354,1.181q2.023.7,3.752,1.226t3.415.964a.492.492,0,0,1,.337.7l-2.276,6.391q-.254.7-.759.262a21,21,0,0,0-6.746-3.676,26.9,26.9,0,0,0-8.854-1.4,21.41,21.41,0,0,0-9.19,2.014,24.547,24.547,0,0,0-7.546,5.472,25.325,25.325,0,0,0-5.1,8.185,27.544,27.544,0,0,0-1.855,10.155,26.719,26.719,0,0,0,7.041,18.3,24.16,24.16,0,0,0,7.547,5.516,21.2,21.2,0,0,0,9.1,2.013,28.214,28.214,0,0,0,10.667-1.926,24.342,24.342,0,0,0,8.306-5.515.376.376,0,0,1,.463-.176C553.749,465.836,553.792,466.012,553.68,466.3Z" transform="translate(-15)" fill="#1a1311" stroke="#1a1311" stroke-miterlimit="10" stroke-width="0.5"/>
          <path id="パス_18" data-name="パス 18" d="M601.152,456.41a25.953,25.953,0,0,1-1.561,9.105,22.144,22.144,0,0,1-4.342,7.266,20.494,20.494,0,0,1-6.493,4.815,18.538,18.538,0,0,1-8.01,1.751,20.9,20.9,0,0,1-8.516-1.707,19.912,19.912,0,0,1-6.7-4.771,21.731,21.731,0,0,1-4.385-7.266,27.733,27.733,0,0,1,0-18.341,22.524,22.524,0,0,1,4.343-7.354,19.965,19.965,0,0,1,6.576-4.858,19.686,19.686,0,0,1,8.347-1.751,19.293,19.293,0,0,1,8.18,1.751,19.975,19.975,0,0,1,6.576,4.858,23.134,23.134,0,0,1,4.385,7.354A25.734,25.734,0,0,1,601.152,456.41Zm-7.589.088a23.174,23.174,0,0,0-.97-6.829,17.928,17.928,0,0,0-2.7-5.471,13.124,13.124,0,0,0-4.174-3.677,10.781,10.781,0,0,0-5.313-1.357,10.968,10.968,0,0,0-5.353,1.314,13.162,13.162,0,0,0-4.174,3.632,17.3,17.3,0,0,0-2.741,5.472,22.789,22.789,0,0,0-.969,6.74,20.963,20.963,0,0,0,1.054,6.785,18.2,18.2,0,0,0,2.866,5.428,13.294,13.294,0,0,0,4.3,3.633,11.283,11.283,0,0,0,5.354,1.313,10.807,10.807,0,0,0,5.27-1.313,12.1,12.1,0,0,0,4.048-3.589,17.824,17.824,0,0,0,2.571-5.384A23.318,23.318,0,0,0,593.563,456.5Z" transform="translate(-15)" fill="#1a1311" stroke="#1a1311" stroke-miterlimit="10" stroke-width="0.5"/>
          <path id="パス_19" data-name="パス 19" d="M619.616,473.569a5.49,5.49,0,0,1-1.6,3.94,5.2,5.2,0,0,1-3.879,1.663,5.1,5.1,0,0,1-3.794-1.663,5.487,5.487,0,0,1-1.6-3.94,5.594,5.594,0,0,1,1.6-4.027,5.092,5.092,0,0,1,3.794-1.663,5.193,5.193,0,0,1,3.879,1.663A5.6,5.6,0,0,1,619.616,473.569Z" transform="translate(-15)" fill="#1a1311" stroke="#1a1311" stroke-miterlimit="10" stroke-width="0.5"/>
          <path id="パス_20" data-name="パス 20" d="M639.177,475.058a20.477,20.477,0,0,1-1.729,8.141,24.315,24.315,0,0,1-4.173,6.741,1.893,1.893,0,0,1-.59.482c-.114.028-.31-.044-.59-.219l-1.266-.964q-.505-.35-.084-.963a15.313,15.313,0,0,0,2.109-4.07,9.671,9.671,0,0,0,.506-3.895,2.572,2.572,0,0,0-.211-.832,1.244,1.244,0,0,0-.717-.395,5.83,5.83,0,0,1-3.12-1.882,5.316,5.316,0,0,1-1.265-3.633,5.484,5.484,0,0,1,1.6-3.939,5.09,5.09,0,0,1,3.794-1.664,5.575,5.575,0,0,1,3.962,1.708Q639.177,471.381,639.177,475.058Z" transform="translate(-15)" fill="#1a1311" stroke="#1a1311" stroke-miterlimit="10" stroke-width="0.5"/>
          <path id="パス_21" data-name="パス 21" d="M682.011,472.256q-.423,1.314-.844,2.846t-.759,2.669a1.8,1.8,0,0,0-.126.35c-.029.116-.155.176-.38.176q-3.709-.174-7.545-.176h-6.452q-1.263,0-3.457.044t-4.636.044q-2.448,0-4.68.044t-3.5.044q-.338,0-.337-.613.168-1.488.3-3.284t.169-3.5q.041-1.707.084-3.239c.028-1.02.042-1.883.042-2.583V430.06q0-.875-.042-2.627t-.126-3.677q-.086-1.925-.211-3.677t-.211-2.626c0-.35.14-.525.422-.525h7.842q.673,0,.506.525a17.023,17.023,0,0,0-.253,2.538q-.086,1.754-.169,3.678t-.127,3.72q-.043,1.8-.042,2.671v34.929q0,1.314.042,3.021a21.028,21.028,0,0,0,.127,2.232,1.792,1.792,0,0,0,1.939,1.488,28.782,28.782,0,0,0,3.035.219q1.686.045,3.541.044,6.156,0,9.74-.088t5.691-.261C681.982,471.644,682.123,471.849,682.011,472.256Z" fill="#1a1311" stroke="#1a1311" stroke-miterlimit="10" stroke-width="0.5"/>
          <path id="パス_22" data-name="パス 22" d="M709.076,476.021a1.126,1.126,0,0,1,.126.569c-.028.087-.182.189-.464.306a10.58,10.58,0,0,1-2.36.875,14.46,14.46,0,0,1-3.795.438,12.063,12.063,0,0,1-8.853-3.239q-3.288-3.237-3.288-9.28V441c0-.35-.169-.524-.506-.524h-3.963q-.591,0-.422-.7l1.686-4.814a.717.717,0,0,1,.759-.525h1.94c.337,0,.506-.145.506-.438v-8.055q-.086-.436.505-.875l6.156-5.34q.505-.525.506.262v13.92q0,.526.505.526H707.9q.588,0,.422.613l-1.687,4.9c-.113.35-.31.526-.591.526h-7.926c-.337,0-.505.174-.505.524v23.112q0,4.2,1.517,6.084t4.891,1.883a4.774,4.774,0,0,0,1.475-.263c.535-.174.941-.32,1.223-.437q.673-.351.844.263Z" fill="#1a1311" stroke="#1a1311" stroke-miterlimit="10" stroke-width="0.5"/>
          <path id="パス_23" data-name="パス 23" d="M752.163,477.684q0,.525-.506.525h-5.4q-.759,0-.844-.525l-.337-2.452c-.113-.583-.366-.669-.759-.262a14.2,14.2,0,0,1-4.721,3.151,16.609,16.609,0,0,1-6.577,1.226,17.254,17.254,0,0,1-13.323-6.084,21.74,21.74,0,0,1-4.005-7.223,29.763,29.763,0,0,1-1.475-9.718,30.554,30.554,0,0,1,1.433-9.717,21.222,21.222,0,0,1,3.963-7.222,17.245,17.245,0,0,1,13.323-6.084,17.051,17.051,0,0,1,5.775.919,16.5,16.5,0,0,1,4.765,2.67c.337.293.575.393.715.306s.211-.394.211-.919V425.6q0-3.327-.126-6.128a41.389,41.389,0,0,0-.463-4.816.341.341,0,0,1,.211-.35,2.463,2.463,0,0,0,.463-.263l6.324-2.451q.757-.35.758.525v52.877q0,3.153.127,6.523T752.163,477.684Zm-7.758-32.041a2.634,2.634,0,0,0-.505-1.577,14.933,14.933,0,0,0-4.427-3.545,11.782,11.782,0,0,0-9.823-.043,11.663,11.663,0,0,0-4.047,3.151,15.278,15.278,0,0,0-2.783,5.253,24.447,24.447,0,0,0-1.011,7.44,23.592,23.592,0,0,0,1.053,7.4,16.259,16.259,0,0,0,2.783,5.3,11.16,11.16,0,0,0,4.048,3.151,11.6,11.6,0,0,0,4.847,1.051,11.773,11.773,0,0,0,5.1-1.138,10.762,10.762,0,0,0,3.921-3.064,2.638,2.638,0,0,0,.842-1.838Z" fill="#1a1311" stroke="#1a1311" stroke-miterlimit="10" stroke-width="0.5"/>
        </g>
      </g>
    </g>
  </g>
</svg>
